<svg width="35" height="32" viewBox="0 0 35 32" fill="none" xmlns="http://www.w3.org/2000/svg">
<path d="M2.1875 4.71827C4.12344 3.81473 6.89937 2.84037 9.59875 2.53756C12.5081 2.21033 14.9756 2.6914 16.4062 4.37394V28.1737C14.3609 26.8795 11.7688 26.7012 9.37781 26.9698C6.79656 27.2628 4.19344 28.0956 2.1875 28.9503V4.71827ZM18.5938 4.37394C20.0244 2.6914 22.4919 2.21033 25.4013 2.53756C28.1006 2.84037 30.8766 3.81473 32.8125 4.71827V28.9503C30.8044 28.0956 28.2034 27.2604 25.6222 26.9722C23.2291 26.7012 20.6391 26.877 18.5938 28.1737V4.37394ZM17.5 2.16637C15.3453 0.0979948 12.2216 -0.209698 9.37781 0.107763C6.06594 0.481389 2.72344 1.74879 0.640938 2.80618C0.449857 2.90319 0.287821 3.05954 0.174171 3.25656C0.0605209 3.45358 5.8125e-05 3.68295 0 3.91729L0 30.7793C5.06669e-05 30.9836 0.0460188 31.1846 0.133694 31.364C0.221369 31.5433 0.347948 31.6952 0.501836 31.8057C0.655725 31.9163 0.832004 31.982 1.01453 31.9968C1.19705 32.0116 1.37998 31.975 1.54656 31.8904C3.47594 30.9136 6.58438 29.739 9.59656 29.3996C12.6788 29.0528 15.2622 29.6121 16.6469 31.5412C16.7494 31.6838 16.8792 31.7989 17.0269 31.878C17.1745 31.9571 17.3362 31.9982 17.5 31.9982C17.6638 31.9982 17.8255 31.9571 17.9731 31.878C18.1208 31.7989 18.2506 31.6838 18.3531 31.5412C19.7378 29.6121 22.3213 29.0528 25.4013 29.3996C28.4156 29.739 31.5263 30.9136 33.4534 31.8904C33.62 31.975 33.803 32.0116 33.9855 31.9968C34.168 31.982 34.3443 31.9163 34.4982 31.8057C34.6521 31.6952 34.7786 31.5433 34.8663 31.364C34.954 31.1846 35 30.9836 35 30.7793V3.91729C34.9999 3.68295 34.9395 3.45358 34.8258 3.25656C34.7122 3.05954 34.5501 2.90319 34.3591 2.80618C32.2766 1.74879 28.9341 0.481389 25.6222 0.107763C22.7784 -0.21214 19.6547 0.0979948 17.5 2.16637Z" fill="white"/>
</svg>
