<svg width="201" height="37" viewBox="0 0 201 37" fill="none" xmlns="http://www.w3.org/2000/svg">
<circle cx="18" cy="18" r="18" fill="#202020"/>
<ellipse cx="128" cy="18.375" rx="18" ry="18.375" fill="#202020"/>
<ellipse cx="73" cy="18.375" rx="18" ry="18.375" fill="#202020"/>
<circle cx="183" cy="18" r="18" fill="#202020"/>
<path d="M78.0959 25.5234H68.4275C67.0915 25.5234 66 24.4319 66 23.0959V13.4275C66 12.0915 67.0915 11 68.4275 11H78.0959C79.4319 11 80.5234 12.0915 80.5234 13.4275V23.0959C80.5234 24.4379 79.4379 25.5234 78.0959 25.5234Z" fill="white"/>
<path d="M73.2646 21.9927C72.2686 21.9927 71.3322 21.605 70.6284 20.9012C69.9246 20.1974 69.5369 19.2609 69.5369 18.2649C69.5369 17.2688 69.9246 16.3324 70.6284 15.6286C71.3322 14.9248 72.2686 14.5371 73.2646 14.5371C74.2607 14.5371 75.1971 14.9248 75.9009 15.6286C76.6047 16.3324 76.9924 17.2688 76.9924 18.2649C76.9924 19.2609 76.6047 20.1974 75.9009 20.9012C75.1912 21.605 74.2607 21.9927 73.2646 21.9927ZM73.2646 15.3304C71.6483 15.3304 70.3301 16.6426 70.3301 18.2649C70.3301 19.8812 71.6423 21.1994 73.2646 21.1994C74.881 21.1994 76.1991 19.8872 76.1991 18.2649C76.1932 16.6485 74.881 15.3304 73.2646 15.3304Z" fill="#202020"/>
<path d="M77.7192 14.4142C78.1145 14.4142 78.4349 14.0937 78.4349 13.6984C78.4349 13.3031 78.1145 12.9827 77.7192 12.9827C77.3239 12.9827 77.0034 13.3031 77.0034 13.6984C77.0034 14.0937 77.3239 14.4142 77.7192 14.4142Z" fill="#202020"/>
<path d="M119 23.8501C120.83 23.9542 122.43 23.5217 123.991 22.3763C122.414 22.104 121.321 21.3751 120.727 19.8693C121.186 19.8052 121.59 19.9253 122.066 19.7331C120.513 19.0443 119.507 18.011 119.467 16.2249C119.959 16.2649 120.331 16.5933 120.917 16.5452C119.491 15.1355 119.055 13.5977 119.951 11.7314C121.44 13.4615 123.183 14.6389 125.314 15.1916C125.432 15.2237 125.543 15.2557 125.662 15.2797C126.209 15.4079 126.858 15.6802 127.191 15.6402C127.761 15.5681 127.191 14.9033 127.334 14.0382C127.785 11.347 130.716 10.1215 132.887 11.6994C133.521 12.164 134.02 12.1559 134.645 11.8756C134.97 11.7314 135.303 11.5873 135.691 11.4191C135.604 12.188 135.018 12.6125 134.55 13.1812C135.081 13.3013 135.509 13.1491 136 12.989C135.834 13.5416 135.422 13.854 135.049 14.1584C134.661 14.4707 134.511 14.7991 134.495 15.3118C134.257 23.0731 125.535 29.0724 119.57 24.2986C118.992 23.834 119.555 24.2986 119 23.8501Z" fill="white"/>
<path d="M18.56 19.7204V26H15.523V19.7204H13V17.1742H15.523V16.2478C15.523 12.8084 17.0357 11 20.2362 11C21.2174 11 21.4627 11.1498 22 11.2718V13.7903C21.3984 13.6905 21.2291 13.635 20.6042 13.635C19.8624 13.635 19.4653 13.8347 19.1032 14.2286C18.7411 14.6224 18.56 15.3047 18.56 16.2811V17.1797H22L21.0772 19.726H18.56V19.7204Z" fill="white"/>
<path d="M178.476 15.0615H175.26V25.3183H178.476V15.0615Z" fill="white"/>
<path d="M187.176 14.8395C187.058 14.8246 186.932 14.8172 186.806 14.8098C185.005 14.7357 183.99 15.8029 183.634 16.2624C183.537 16.3884 183.493 16.4625 183.493 16.4625V15.0914H180.417V25.3482H183.493H183.634C183.634 24.3032 183.634 23.2657 183.634 22.2208C183.634 21.6575 183.634 21.0943 183.634 20.5311C183.634 19.8344 183.582 19.0933 183.93 18.456C184.227 17.9224 184.76 17.6556 185.361 17.6556C187.139 17.6556 187.176 19.2638 187.176 19.412C187.176 19.4194 187.176 19.4268 187.176 19.4268V25.3926H190.393V18.7006C190.393 16.4106 189.229 15.0618 187.176 14.8395Z" fill="white"/>
<path d="M176.868 13.7351C177.899 13.7351 178.735 12.899 178.735 11.8676C178.735 10.8361 177.899 10 176.868 10C175.836 10 175 10.8361 175 11.8676C175 12.899 175.836 13.7351 176.868 13.7351Z" fill="white"/>
</svg>
