<svg width="44" height="45" viewBox="0 0 44 45" fill="none" xmlns="http://www.w3.org/2000/svg">
<rect x="0.5" y="1" width="43" height="43" stroke="#09B451"/>
<path d="M22 12.5C21.0111 12.5 20.0444 12.7932 19.2221 13.3427C18.3999 13.8921 17.759 14.673 17.3806 15.5866C17.0022 16.5002 16.9031 17.5055 17.0961 18.4755C17.289 19.4454 17.7652 20.3363 18.4645 21.0355C19.1637 21.7348 20.0546 22.211 21.0245 22.4039C21.9945 22.5969 22.9998 22.4978 23.9134 22.1194C24.827 21.741 25.6079 21.1001 26.1573 20.2779C26.7068 19.4556 27 18.4889 27 17.5C27 16.1739 26.4732 14.9021 25.5355 13.9645C24.5979 13.0268 23.3261 12.5 22 12.5ZM22 20.5C21.4067 20.5 20.8266 20.3241 20.3333 19.9944C19.8399 19.6648 19.4554 19.1962 19.2284 18.6481C19.0013 18.0999 18.9419 17.4967 19.0576 16.9147C19.1734 16.3328 19.4591 15.7982 19.8787 15.3787C20.2982 14.9591 20.8328 14.6734 21.4147 14.5576C21.9967 14.4419 22.5999 14.5013 23.1481 14.7284C23.6962 14.9554 24.1648 15.3399 24.4944 15.8333C24.8241 16.3266 25 16.9067 25 17.5C25 18.2956 24.6839 19.0587 24.1213 19.6213C23.5587 20.1839 22.7956 20.5 22 20.5ZM31 31.5V30.5C31 28.6435 30.2625 26.863 28.9497 25.5503C27.637 24.2375 25.8565 23.5 24 23.5H20C18.1435 23.5 16.363 24.2375 15.0503 25.5503C13.7375 26.863 13 28.6435 13 30.5V31.5H15V30.5C15 29.1739 15.5268 27.9021 16.4645 26.9645C17.4021 26.0268 18.6739 25.5 20 25.5H24C25.3261 25.5 26.5979 26.0268 27.5355 26.9645C28.4732 27.9021 29 29.1739 29 30.5V31.5H31Z" fill="#09B451"/>
</svg>
