<svg width="21" height="23" viewBox="0 0 21 23" fill="none" xmlns="http://www.w3.org/2000/svg">
<path d="M20.0281 16.1708L17.8288 12.2116V8.08929C17.8288 3.97347 14.3949 0.625 10.174 0.625C5.95307 0.625 2.51912 3.97347 2.51912 8.08929V12.2116L0.319756 16.1707C0.220017 16.3503 0.169818 16.552 0.174078 16.7561C0.178338 16.9603 0.236911 17.1598 0.344057 17.3352C0.451203 17.5106 0.603247 17.6559 0.78529 17.7568C0.967334 17.8577 1.17313 17.9107 1.38252 17.9107H5.76064C5.74866 18.0402 5.74216 18.171 5.74216 18.3036C5.74216 19.4497 6.20908 20.5489 7.04019 21.3593C7.87131 22.1697 8.99854 22.625 10.1739 22.625C11.3493 22.625 12.4765 22.1697 13.3076 21.3593C14.1388 20.5489 14.6057 19.4497 14.6057 18.3036C14.6057 18.171 14.5992 18.0402 14.5872 17.9107H18.9653C19.1747 17.9107 19.3805 17.8576 19.5625 17.7567C19.7445 17.6559 19.8965 17.5106 20.0036 17.3352C20.1108 17.1598 20.1693 16.9602 20.1736 16.7561C20.1778 16.552 20.1278 16.3503 20.0281 16.1708ZM12.9942 18.3036C12.9945 18.6815 12.9149 19.0554 12.7604 19.402C12.6059 19.7486 12.3798 20.0604 12.0963 20.318C11.8127 20.5756 11.4777 20.7734 11.1122 20.8992C10.7467 21.0249 10.3586 21.0758 9.972 21.0488C9.58543 21.0217 9.20872 20.9172 8.86541 20.7419C8.52209 20.5665 8.21951 20.324 7.97658 20.0296C7.73364 19.7351 7.55555 19.395 7.45343 19.0304C7.35131 18.6659 7.32734 18.2847 7.38302 17.9107H12.9649C12.9842 18.0408 12.994 18.1721 12.9942 18.3036ZM2.05892 16.3393L4.13066 12.6098V8.08929C4.13066 6.5264 4.76737 5.02753 5.90071 3.92241C7.03405 2.81728 8.57118 2.19643 10.174 2.19643C11.7768 2.19643 13.3139 2.81728 14.4472 3.92241C15.5806 5.02753 16.2173 6.5264 16.2173 8.08929V12.6098L18.2889 16.3393H2.05892Z" fill="black"/>
</svg>
