<svg width="24" height="25" viewBox="0 0 24 25" fill="none" xmlns="http://www.w3.org/2000/svg">
<path fill-rule="evenodd" clip-rule="evenodd" d="M6.02938 2.1001H6.06115H17.1381H17.1699C17.789 2.10009 18.3001 2.10008 18.7164 2.1341C19.1488 2.16942 19.5462 2.24524 19.9196 2.43547C20.4985 2.73045 20.9693 3.20117 21.2642 3.78013C21.4545 4.15347 21.5302 4.55093 21.5656 4.98331C21.5996 5.39961 21.5996 5.91065 21.5996 6.52985V6.56164V17.6386V17.6704C21.5996 18.2895 21.5996 18.8006 21.5656 19.2169C21.5302 19.6493 21.4545 20.0467 21.2642 20.4201C20.9693 20.999 20.4985 21.4698 19.9196 21.7647C19.5462 21.955 19.1488 22.0307 18.7164 22.0661C18.3001 22.1001 17.789 22.1001 17.1699 22.1001H17.1381H6.06115H6.02936C5.41016 22.1001 4.89912 22.1001 4.48283 22.0661C4.05044 22.0307 3.65298 21.955 3.27964 21.7647C2.70069 21.4698 2.22996 20.999 1.93498 20.4201C1.74475 20.0467 1.66893 19.6493 1.63361 19.2169C1.59959 18.8006 1.5996 18.2895 1.59961 17.6704V17.6386V6.56164V6.52987C1.5996 5.91067 1.59959 5.39961 1.63361 4.98331C1.66893 4.55093 1.74475 4.15347 1.93498 3.78013C2.22996 3.20117 2.70069 2.73045 3.27964 2.43547C3.65298 2.24524 4.05044 2.16942 4.48283 2.1341C4.89913 2.10008 5.41018 2.10009 6.02938 2.1001ZM4.6081 3.66745C4.27086 3.69501 4.09839 3.74494 3.97809 3.80624C3.68861 3.95374 3.45326 4.1891 3.30575 4.47857C3.24446 4.59888 3.19452 4.77134 3.16696 5.10859C3.13867 5.45481 3.13807 5.90273 3.13807 6.56164V11.3309H10.8304V3.63856H6.06115C5.40224 3.63856 4.95432 3.63916 4.6081 3.66745ZM10.8304 12.8693H3.13807V17.6386C3.13807 18.2975 3.13867 18.7453 3.16696 19.0916C3.19452 19.4289 3.24446 19.6013 3.30575 19.7216C3.45326 20.0112 3.68861 20.2464 3.97809 20.3939C4.09839 20.4553 4.27086 20.5052 4.6081 20.5327C4.95432 20.561 5.40224 20.5616 6.06115 20.5616H10.8304V12.8693ZM12.3688 12.8693H20.0611V17.6386C20.0611 18.2975 20.0605 18.7453 20.0322 19.0916C20.0047 19.4289 19.9548 19.6013 19.8935 19.7216C19.7459 20.0112 19.5107 20.2464 19.2211 20.3939C19.1008 20.4553 18.9284 20.5052 18.5911 20.5327C18.2448 20.561 17.797 20.5616 17.1381 20.5616H12.3688V12.8693ZM20.0611 11.3309H12.3688V3.63856H17.1381C17.797 3.63856 18.2448 3.63916 18.5911 3.66745C18.9284 3.69501 19.1008 3.74494 19.2211 3.80624C19.5107 3.95374 19.7459 4.1891 19.8935 4.47857C19.9548 4.59888 20.0047 4.77134 20.0322 5.10859C20.0605 5.45481 20.0611 5.90273 20.0611 6.56164V11.3309Z" fill="black"/>
</svg>
