<svg width="20" height="20" viewBox="0 0 20 20" fill="none" xmlns="http://www.w3.org/2000/svg">
<path fill-rule="evenodd" clip-rule="evenodd" d="M10 6.875C8.27411 6.875 6.875 8.27411 6.875 10C6.875 11.7259 8.27411 13.125 10 13.125C11.7259 13.125 13.125 11.7259 13.125 10C13.125 8.27411 11.7259 6.875 10 6.875ZM8.125 10C8.125 8.9645 8.9645 8.125 10 8.125C11.0355 8.125 11.875 8.9645 11.875 10C11.875 11.0355 11.0355 11.875 10 11.875C8.9645 11.875 8.125 11.0355 8.125 10Z" fill="black"/>
<path fill-rule="evenodd" clip-rule="evenodd" d="M9.99935 2.70825C6.23757 2.70825 3.70376 4.96175 2.23316 6.8723L2.20663 6.90675C1.87405 7.33869 1.56773 7.73652 1.35992 8.20692C1.13738 8.71067 1.04102 9.25967 1.04102 9.99992C1.04102 10.7402 1.13738 11.2892 1.35992 11.7929C1.56773 12.2633 1.87405 12.6612 2.20664 13.0931L2.23316 13.1275C3.70376 15.0381 6.23757 17.2916 9.99935 17.2916C13.7611 17.2916 16.2949 15.0381 17.7655 13.1275L17.792 13.0931C18.1247 12.6612 18.4309 12.2633 18.6388 11.7929C18.8613 11.2892 18.9577 10.7402 18.9577 9.99992C18.9577 9.25967 18.8613 8.71067 18.6388 8.20692C18.4309 7.73651 18.1247 7.33869 17.792 6.90674L17.7655 6.8723C16.2949 4.96175 13.7611 2.70825 9.99935 2.70825ZM3.2237 7.63475C4.58155 5.87069 6.79131 3.95825 9.99935 3.95825C13.2073 3.95825 15.4172 5.87069 16.775 7.63475C17.1405 8.10958 17.3546 8.39334 17.4953 8.712C17.627 9.00992 17.7077 9.374 17.7077 9.99992C17.7077 10.6258 17.627 10.9899 17.4953 11.2878C17.3546 11.6065 17.1405 11.8903 16.775 12.3651C15.4172 14.1292 13.2073 16.0416 9.99935 16.0416C6.79131 16.0416 4.58155 14.1292 3.2237 12.3651C2.85822 11.8903 2.64413 11.6065 2.50332 11.2878C2.37172 10.9899 2.29102 10.6258 2.29102 9.99992C2.29102 9.374 2.37172 9.00992 2.50332 8.712C2.64413 8.39334 2.85821 8.10958 3.2237 7.63475Z" fill="black"/>
</svg>
