<svg width="24" height="25" viewBox="0 0 24 25" fill="none" xmlns="http://www.w3.org/2000/svg">
<path d="M9.10772 21.1266C9.10772 21.6076 9.46934 21.9975 9.91541 21.9975C10.3615 21.9975 10.7231 21.6076 10.7231 21.1266H9.10772ZM9.91541 18.5362L9.10831 18.5029C9.10791 18.514 9.10772 18.525 9.10772 18.5362H9.91541ZM12.5 15.9469L12.4716 16.8171C12.4905 16.8178 12.5095 16.8178 12.5284 16.8171L12.5 15.9469ZM15.0846 18.5362H15.8923C15.8923 18.525 15.8921 18.514 15.8917 18.5029L15.0846 18.5362ZM14.2769 21.1266C14.2769 21.6076 14.6385 21.9975 15.0846 21.9975C15.5307 21.9975 15.8923 21.6076 15.8923 21.1266H14.2769ZM9.91541 20.2558C9.46934 20.2558 9.10772 20.6457 9.10772 21.1266C9.10772 21.6076 9.46934 21.9975 9.91541 21.9975V20.2558ZM15.0846 21.9975C15.5307 21.9975 15.8923 21.6076 15.8923 21.1266C15.8923 20.6457 15.5307 20.2558 15.0846 20.2558V21.9975ZM9.91541 21.9975C10.3615 21.9975 10.7231 21.6076 10.7231 21.1266C10.7231 20.6457 10.3615 20.2558 9.91541 20.2558V21.9975ZM9.26926 21.1266V20.2558C9.25978 20.2558 9.2503 20.2559 9.24083 20.2563L9.26926 21.1266ZM5.39236 17.2415H4.58468C4.58468 17.2524 4.58487 17.2635 4.58526 17.2745L5.39236 17.2415ZM6.20005 9.45502C6.20005 8.97407 5.83843 8.58418 5.39236 8.58418C4.9463 8.58418 4.58468 8.97407 4.58468 9.45502H6.20005ZM2.35417 10.626C1.98508 10.896 1.88897 11.4376 2.13948 11.8356C2.39 12.2335 2.89229 12.3371 3.26137 12.067L2.35417 10.626ZM5.84596 10.1756C6.21505 9.90546 6.31117 9.3639 6.06065 8.96596C5.81013 8.56802 5.30785 8.46438 4.93877 8.73449L5.84596 10.1756ZM4.93877 8.73449C4.56967 9.00456 4.47356 9.5461 4.72405 9.94405C4.97455 10.342 5.47687 10.4456 5.84596 10.1756L4.93877 8.73449ZM11.0096 5.34466L10.5714 4.61311C10.5662 4.61671 10.561 4.62037 10.556 4.6241L11.0096 5.34466ZM13.9905 5.34466L14.444 4.6241C14.439 4.62037 14.4338 4.61671 14.4286 4.61311L13.9905 5.34466ZM19.154 10.1756C19.5232 10.4457 20.0255 10.342 20.276 9.94405C20.5265 9.5461 20.4303 9.00454 20.0612 8.73447L19.154 10.1756ZM15.0846 20.2558C14.6385 20.2558 14.2769 20.6457 14.2769 21.1266C14.2769 21.6076 14.6385 21.9975 15.0846 21.9975V20.2558ZM15.7307 21.1266L15.7592 20.2563C15.7497 20.2559 15.7402 20.2558 15.7307 20.2558V21.1266ZM19.6076 17.2415L20.4148 17.2745C20.4151 17.2635 20.4153 17.2524 20.4153 17.2415H19.6076ZM20.4153 9.45502C20.4153 8.97407 20.0537 8.58418 19.6076 8.58418C19.1616 8.58418 18.8 8.97407 18.8 9.45502H20.4153ZM21.7389 12.066C22.108 12.336 22.6103 12.2322 22.8607 11.8342C23.1111 11.4362 23.0148 10.8946 22.6456 10.6247L21.7389 12.066ZM20.0612 8.73447C19.6921 8.46447 19.1897 8.56815 18.9392 8.96617C18.6888 9.36419 18.7849 9.90559 19.154 10.1756L20.0612 8.73447ZM10.7231 21.1266V18.5362H9.10772V21.1266H10.7231ZM10.7226 18.5694C10.7581 17.5655 11.5404 16.7817 12.4716 16.8171L12.5284 15.0765C10.7075 15.0074 9.17786 16.5397 9.10831 18.5029L10.7226 18.5694ZM12.5284 16.8171C13.4596 16.7817 14.2419 17.5655 14.2775 18.5694L15.8917 18.5029C15.8222 16.5397 14.2925 15.0074 12.4716 15.0765L12.5284 16.8171ZM14.2769 18.5362V21.1266H15.8923V18.5362H14.2769ZM9.91541 21.9975H15.0846V20.2558H12.5H9.91541V21.9975ZM9.91541 20.2558H9.26926V21.9975H9.91541V20.2558ZM9.24083 20.2563C7.62121 20.3178 6.26087 18.9545 6.19947 17.2086L4.58526 17.2745C4.68039 19.9799 6.78817 22.0922 9.29769 21.9969L9.24083 20.2563ZM6.20005 17.2415V9.45502H4.58468V17.2415H6.20005ZM3.26137 12.067L5.84596 10.1756L4.93877 8.73449L2.35417 10.626L3.26137 12.067ZM5.84596 10.1756L11.4631 6.06522L10.556 4.6241L4.93877 8.73449L5.84596 10.1756ZM11.4477 6.0762C12.0883 5.63018 12.9117 5.63018 13.5523 6.0762L14.4286 4.61311C13.2547 3.79563 11.7453 3.79563 10.5714 4.61311L11.4477 6.0762ZM13.5369 6.06522L19.154 10.1756L20.0612 8.73447L14.444 4.6241L13.5369 6.06522ZM15.0846 21.9975H15.7307V20.2558H15.0846V21.9975ZM15.7023 21.9969C18.2119 22.0922 20.3196 19.9799 20.4148 17.2745L18.8005 17.2086C18.7391 18.9545 17.3787 20.3178 15.7592 20.2563L15.7023 21.9969ZM20.4153 17.2415V9.45502H18.8V17.2415H20.4153ZM22.6456 10.6247L20.0612 8.73447L19.154 10.1756L21.7389 12.066L22.6456 10.6247Z" fill="white"/>
</svg>
