<svg width="24" height="24" viewBox="0 0 24 24" fill="none" xmlns="http://www.w3.org/2000/svg">
<path d="M11.25 1.5V12H12.75V1.5H11.25Z" fill="black"/>
<path d="M4.50054 13.218C4.50018 11.8784 4.85866 10.5632 5.53871 9.40915C6.21877 8.25507 7.19556 7.30422 8.36754 6.65548L7.64004 5.34448C5.90083 6.30758 4.52945 7.81945 3.74 9.64405C2.95055 11.4687 2.78746 13.5033 3.27619 15.4304C3.76491 17.3574 4.87795 19.0684 6.44154 20.2963C8.00513 21.5241 9.93127 22.1997 11.9193 22.2175C13.9072 22.2354 15.8452 21.5945 17.4306 20.3949C19.0159 19.1953 20.1595 17.5045 20.6827 15.5865C21.2059 13.6686 21.0794 11.6313 20.3228 9.79284C19.5662 7.95436 18.2222 6.41814 16.5005 5.42398L15.749 6.72148C16.8894 7.37951 17.8364 8.32613 18.4949 9.46618C19.1535 10.6062 19.5003 11.8996 19.5005 13.2161C19.5008 14.5327 19.1545 15.8262 18.4964 16.9665C17.8383 18.1068 16.8916 19.0537 15.7515 19.7122C14.6114 20.3706 13.318 20.7174 12.0015 20.7175C10.6849 20.7177 9.39146 20.3713 8.2512 19.7131C7.11095 19.0549 6.16403 18.1082 5.50565 16.9681C4.84727 15.8279 4.50062 14.5346 4.50054 13.218Z" fill="black"/>
</svg>
