<svg width="40" height="40" viewBox="0 0 40 40" fill="none" xmlns="http://www.w3.org/2000/svg">
<path d="M21.4146 21.6667C20.9413 21.6667 20.4874 21.4911 20.1527 21.1785C19.818 20.866 19.63 20.442 19.63 20C19.63 19.558 19.818 19.134 20.1527 18.8215C20.4874 18.5089 20.9413 18.3333 21.4146 18.3333C21.8879 18.3333 22.3418 18.5089 22.6765 18.8215C23.0112 19.134 23.1992 19.558 23.1992 20C23.1992 20.442 23.0112 20.866 22.6765 21.1785C22.3418 21.4911 21.8879 21.6667 21.4146 21.6667ZM-0.000782013 38.3333C-0.000782013 37.8913 0.187239 37.4674 0.521919 37.1548C0.8566 36.8423 1.31052 36.6667 1.78383 36.6667C2.25714 36.6667 2.71107 36.8423 3.04575 37.1548C3.38043 37.4674 3.56845 37.8913 3.56845 38.3333C3.56845 38.7754 3.38043 39.1993 3.04575 39.5118C2.71107 39.8244 2.25714 40 1.78383 40C1.31052 40 0.8566 39.8244 0.521919 39.5118C0.187239 39.1993 -0.000782013 38.7754 -0.000782013 38.3333ZM1.78383 0C1.31052 0 0.8566 0.175595 0.521919 0.488156C0.187239 0.800716 -0.000782013 1.22464 -0.000782013 1.66667C-0.000782013 2.10869 0.187239 2.53262 0.521919 2.84518C0.8566 3.15774 1.31052 3.33333 1.78383 3.33333C2.25714 3.33333 2.71107 3.15774 3.04575 2.84518C3.38043 2.53262 3.56845 2.10869 3.56845 1.66667C3.56845 1.22464 3.38043 0.800716 3.04575 0.488156C2.71107 0.175595 2.25714 0 1.78383 0ZM14.4046 34.1433C14.2342 33.9896 14.0982 33.8057 14.0047 33.6023C13.9112 33.399 13.8619 33.1803 13.8599 32.959C13.8578 32.7377 13.903 32.5182 13.9927 32.3134C14.0824 32.1086 14.215 31.9225 14.3825 31.766C14.5501 31.6095 14.7493 31.4858 14.9687 31.402C15.188 31.3182 15.423 31.276 15.6599 31.2779C15.8969 31.2798 16.1311 31.3258 16.3488 31.4132C16.5665 31.5005 16.7635 31.6275 16.9281 31.7867C17.2532 32.101 17.433 32.522 17.429 32.959C17.4249 33.396 17.2372 33.814 16.9063 34.123C16.5755 34.432 16.1279 34.6073 15.6599 34.6111C15.192 34.6149 14.7412 34.4469 14.4046 34.1433ZM16.9281 5.85667C16.7635 5.69748 16.5665 5.57051 16.3488 5.48316C16.1311 5.39582 15.8969 5.34984 15.6599 5.34792C15.423 5.34599 15.188 5.38816 14.9687 5.47196C14.7493 5.55577 14.5501 5.67952 14.3825 5.83601C14.215 5.9925 14.0824 6.17858 13.9927 6.38341C13.903 6.58824 13.8578 6.8077 13.8599 7.029C13.8619 7.2503 13.9112 7.469 14.0047 7.67234C14.0982 7.87568 14.2342 8.05959 14.4046 8.21333C14.7412 8.51693 15.192 8.68492 15.6599 8.68112C16.1279 8.67733 16.5755 8.50204 16.9063 8.19303C17.2372 7.88402 17.4249 7.466 17.429 7.029C17.433 6.59201 17.2532 6.171 16.9281 5.85667ZM16.0608 20C16.0608 16.4638 14.5566 13.0724 11.8791 10.5719C9.2017 8.07142 5.57031 6.66667 1.78383 6.66667C1.31052 6.66667 0.8566 6.84226 0.521919 7.15482C0.187239 7.46738 -0.000782013 7.89131 -0.000782013 8.33333L-0.000782013 31.6667C-0.000782013 32.1087 0.187239 32.5326 0.521919 32.8452C0.8566 33.1577 1.31052 33.3333 1.78383 33.3333C5.57031 33.3333 9.2017 31.9286 11.8791 29.4281C14.5566 26.9276 16.0608 23.5362 16.0608 20Z" fill="black"/>
</svg>
