<svg width="24" height="24" viewBox="0 0 24 24" fill="none" xmlns="http://www.w3.org/2000/svg">
<path fill-rule="evenodd" clip-rule="evenodd" d="M12.8432 10.5584L6.66237 4.38032C6.39208 4.11003 6.24023 3.74344 6.24023 3.36119C6.24023 2.97894 6.39208 2.61235 6.66237 2.34206C6.93266 2.07177 7.29926 1.91992 7.6815 1.91992C8.06375 1.91992 8.43035 2.07177 8.70064 2.34206L17.3373 10.9788C17.4714 11.1125 17.5777 11.2713 17.6503 11.4462C17.7229 11.6211 17.7602 11.8086 17.7602 11.9979C17.7602 12.1872 17.7229 12.3747 17.6503 12.5496C17.5777 12.7245 17.4714 12.8833 17.3373 13.017L8.70064 21.6537C8.43035 21.924 8.06375 22.0759 7.6815 22.0759C7.29926 22.0759 6.93266 21.924 6.66237 21.6537C6.39208 21.3834 6.24023 21.0169 6.24023 20.6346C6.24023 20.2524 6.39208 19.8858 6.66237 19.6155L12.8434 13.4373L14.303 11.9979L12.8432 10.5584Z" fill="white"/>
</svg>
