<svg width="24" height="25" viewBox="0 0 24 25" fill="none" xmlns="http://www.w3.org/2000/svg">
<path d="M7.5 19.5C8.32843 19.5 9 20.1716 9 21C9 21.8284 8.32843 22.5 7.5 22.5C6.67157 22.5 6 21.8284 6 21C6 20.1716 6.67157 19.5 7.5 19.5Z" fill="black"/>
<path d="M16.5 19.5C17.3284 19.5 18 20.1715 18 21C18 21.8284 17.3284 22.5 16.5 22.5C15.6716 22.5 15 21.8284 15 21C15 20.1715 15.6716 19.5 16.5 19.5Z" fill="black"/>
<path d="M2.07205 2.79554C1.65269 2.6481 1.19321 2.86854 1.04578 3.28788C0.898341 3.70724 1.11878 4.16672 1.53813 4.31415L2.07205 2.79554ZM21.8279 10.9411L22.6161 11.1037L22.6172 11.0987L21.8279 10.9411ZM5.78445 10.8094V7.88865H4.17471V10.8094H5.78445ZM2.35237 2.89409L2.07205 2.79554L1.53813 4.31415L1.81845 4.41271L2.35237 2.89409ZM11.3965 17.7742H17.0873V16.1645H11.3965V17.7742ZM5.78445 7.88865C5.78445 7.12976 5.78555 6.49648 5.72984 5.98187C5.67218 5.44918 5.54725 4.96333 5.24464 4.52051L3.91558 5.42872C4.01244 5.57047 4.08724 5.76517 4.12945 6.1551C4.17362 6.56313 4.17471 7.09457 4.17471 7.88865H5.78445ZM1.81845 4.41271C2.5349 4.6646 3.00575 4.83153 3.35222 5.00153C3.67762 5.16119 3.82107 5.29043 3.91558 5.42872L5.24464 4.52051C4.93967 4.07422 4.53418 3.78839 4.06131 3.55638C3.60949 3.33468 3.03273 3.13329 2.35237 2.89409L1.81845 4.41271ZM4.17471 10.8094C4.17471 12.3682 4.18934 13.4922 4.33642 14.3509C4.49344 15.2677 4.80695 15.9242 5.39315 16.5424L6.56131 15.4349C6.21773 15.0725 6.03241 14.7176 5.92305 14.0792C5.80376 13.3826 5.78445 12.4073 5.78445 10.8094H4.17471ZM11.3965 16.1645C9.876 16.1645 8.82101 16.1626 8.02616 16.0499C7.25905 15.9411 6.85379 15.7434 6.56131 15.4349L5.39315 16.5424C6.03045 17.2147 6.83834 17.5073 7.80015 17.6436C8.73421 17.7762 9.92392 17.7742 11.3965 17.7742V16.1645ZM4.97958 7.70797H17.9978V6.09823H4.97958V7.70797ZM21.0396 10.7787L20.5033 13.3808L22.0799 13.7058L22.6161 11.1037L21.0396 10.7787ZM17.9978 7.70797C18.9168 7.70797 19.7257 7.70905 20.364 7.7804C20.6812 7.81586 20.9186 7.86512 21.0854 7.92373C21.2586 7.98459 21.2862 8.03129 21.2723 8.01317L22.5482 7.03165C22.296 6.70388 21.9414 6.51832 21.6191 6.40502C21.2901 6.28945 20.9182 6.22258 20.5429 6.18063C19.7962 6.09716 18.887 6.09823 17.9978 6.09823V7.70797ZM22.6172 11.0987C22.7988 10.1888 22.953 9.42529 22.9908 8.81374C23.0295 8.18465 22.9579 7.56435 22.5482 7.03165L21.2723 8.01317C21.3389 8.09976 21.4124 8.25568 21.384 8.71457C21.3546 9.19099 21.2295 9.82723 21.0386 10.7836L22.6172 11.0987ZM17.0873 17.7742C17.9048 17.7742 18.5907 17.7756 19.1437 17.7079C19.7186 17.6376 20.243 17.4838 20.7007 17.1108L19.6837 15.8629C19.5494 15.9724 19.3589 16.0598 18.9482 16.1102C18.5155 16.1631 17.9451 16.1645 17.0873 16.1645V17.7742ZM20.5033 13.3808C20.3301 14.2209 20.2135 14.7794 20.0744 15.1924C19.9423 15.5844 19.8181 15.7535 19.6837 15.8629L20.7007 17.1108C21.1584 16.7378 21.4148 16.2553 21.5999 15.7065C21.7778 15.1785 21.9148 14.5063 22.0799 13.7058L20.5033 13.3808Z" fill="black"/>
</svg>
