<svg width="20" height="20" viewBox="0 0 20 20" fill="none" xmlns="http://www.w3.org/2000/svg">
<g clip-path="url(#clip0_1378_378)">
<path d="M11.9661 3.39897L12.7384 2.62657C14.0182 1.34681 16.0931 1.34681 17.3728 2.62657C18.6526 3.90632 18.6526 5.98121 17.3728 7.26097L16.6004 8.03336M11.9661 3.39897C11.9661 3.39897 12.0626 5.04032 13.5108 6.48857C14.9591 7.93681 16.6004 8.03336 16.6004 8.03336M11.9661 3.39897L4.86503 10.5C4.38407 10.981 4.14358 11.2214 3.93676 11.4866C3.69279 11.7994 3.48363 12.1378 3.31297 12.4959C3.16829 12.7995 3.06075 13.1222 2.84565 13.7674L1.93419 16.5018M16.6004 8.03336L9.49943 15.1344C9.01843 15.6153 8.77802 15.8558 8.51285 16.0627C8.20003 16.3067 7.86159 16.5158 7.5035 16.6865C7.19993 16.8312 6.87728 16.9387 6.232 17.1537L3.49761 18.0652M1.93419 16.5018L1.71139 17.1702C1.60554 17.4877 1.68818 17.8378 1.92487 18.0746C2.16157 18.3112 2.51167 18.3939 2.82922 18.2881L3.49761 18.0652M1.93419 16.5018L3.49761 18.0652" stroke="black" stroke-width="1.5"/>
</g>
<defs>
<clipPath id="clip0_1378_378">
<rect width="20" height="20" fill="white"/>
</clipPath>
</defs>
</svg>
