<svg width="24" height="24" viewBox="0 0 24 24" fill="none" xmlns="http://www.w3.org/2000/svg">
<path fill-rule="evenodd" clip-rule="evenodd" d="M11.1568 13.4416L17.3376 19.6197C17.6079 19.89 17.7598 20.2566 17.7598 20.6388C17.7598 21.0211 17.6079 21.3876 17.3376 21.6579C17.0673 21.9282 16.7007 22.0801 16.3185 22.0801C15.9362 22.0801 15.5697 21.9282 15.2994 21.6579L6.66266 13.0212C6.52861 12.8875 6.42225 12.7287 6.34969 12.5538C6.27712 12.3789 6.23977 12.1914 6.23977 12.0021C6.23977 11.8128 6.27712 11.6253 6.34969 11.4504C6.42225 11.2755 6.52861 11.1167 6.66266 10.983L15.2994 2.34626C15.5697 2.07597 15.9362 1.92413 16.3185 1.92413C16.7007 1.92413 17.0673 2.07597 17.3376 2.34626C17.6079 2.61655 17.7598 2.98315 17.7598 3.36539C17.7598 3.74764 17.6079 4.11424 17.3376 4.38453L11.1566 10.5627L9.69704 12.0021L11.1568 13.4416Z" fill="black"/>
</svg>
