<svg width="24" height="25" viewBox="0 0 24 25" fill="none" xmlns="http://www.w3.org/2000/svg">
<path fill-rule="evenodd" clip-rule="evenodd" d="M12 1.75C11.3953 1.75 10.8384 1.90029 10.2288 2.15242C9.64008 2.39588 8.95633 2.75471 8.1049 3.20153L6.03739 4.28651C4.99242 4.83487 4.15616 5.27371 3.51047 5.70491C2.84154 6.15164 2.32632 6.62201 1.95112 7.25918C1.57718 7.89421 1.40896 8.58184 1.32829 9.40072C1.24999 10.1956 1.24999 11.1731 1.25 12.4026V12.5974C1.24999 13.8268 1.24999 14.8044 1.32829 15.5993C1.40896 16.4182 1.57718 17.1058 1.95112 17.7408C2.32632 18.378 2.84154 18.8484 3.51047 19.2951C4.15613 19.7263 4.99233 20.1651 6.03723 20.7134L8.10486 21.7985C8.95628 22.2453 9.64008 22.6041 10.2288 22.8476C10.8384 23.0997 11.3953 23.25 12 23.25C12.6047 23.25 13.1616 23.0997 13.7712 22.8476C14.3599 22.6041 15.0437 22.2453 15.8951 21.7985L17.9626 20.7135C19.0076 20.1651 19.8438 19.7263 20.4895 19.2951C21.1585 18.8484 21.6737 18.378 22.0489 17.7408C22.4228 17.1058 22.591 16.4182 22.6717 15.5993C22.75 14.8044 22.75 13.8269 22.75 12.5975V12.4025C22.75 11.1731 22.75 10.1956 22.6717 9.40072C22.591 8.58184 22.4228 7.89421 22.0489 7.25918C21.6737 6.62201 21.1585 6.15164 20.4895 5.70491C19.8438 5.27371 19.0076 4.83487 17.9626 4.2865L15.8951 3.20154C15.0437 2.75472 14.3599 2.39589 13.7712 2.15242C13.1616 1.90029 12.6047 1.75 12 1.75ZM8.7708 4.54608C9.66052 4.07917 10.284 3.7528 10.802 3.53856C11.3062 3.33004 11.6605 3.25 12 3.25C12.3395 3.25 12.6938 3.33004 13.198 3.53856C13.716 3.7528 14.3395 4.07917 15.2292 4.54608L17.2292 5.59563C18.3189 6.16748 19.0845 6.57032 19.6565 6.95232C19.9387 7.14078 20.1604 7.31578 20.3395 7.49174L12 11.6615L3.66054 7.49174C3.83956 7.31578 4.06132 7.14078 4.34352 6.95232C4.91553 6.57032 5.68111 6.16747 6.7708 5.59563L8.7708 4.54608ZM2.93768 8.80736C2.88718 9.02125 2.84901 9.26412 2.82106 9.54778C2.75084 10.2606 2.75 11.1644 2.75 12.4415V12.5585C2.75 13.8356 2.75084 14.7394 2.82106 15.4522C2.88974 16.1494 3.02022 16.6002 3.24367 16.9797C3.46587 17.357 3.78727 17.6762 4.34352 18.0477C4.91553 18.4297 5.68111 18.8325 6.7708 19.4044L8.7708 20.4539C9.66052 20.9208 10.284 21.2472 10.802 21.4614C10.9656 21.5291 11.1134 21.5832 11.25 21.6255V12.9635L2.93768 8.80736ZM12.75 21.6255C12.8866 21.5832 13.0344 21.5291 13.198 21.4614C13.716 21.2472 14.3395 20.9208 15.2292 20.4539L17.2292 19.4044C18.3189 18.8325 19.0845 18.4297 19.6565 18.0477C20.2127 17.6762 20.5341 17.357 20.7563 16.9797C20.9798 16.6002 21.1103 16.1494 21.1789 15.4522C21.2492 14.7394 21.25 13.8356 21.25 12.5585V12.4415C21.25 11.1644 21.2492 10.2606 21.1789 9.54778C21.151 9.26412 21.1128 9.02125 21.0623 8.80736L12.75 12.9635V21.6255Z" fill="black"/>
</svg>
