<svg width="24" height="25" viewBox="0 0 24 25" fill="none" xmlns="http://www.w3.org/2000/svg">
<path d="M5.25 17H18.75V7.96101L12.9495 3.21501C12.6816 2.99593 12.3461 2.87624 12 2.87624C11.6539 2.87624 11.3184 2.99593 11.0505 3.21501L5.25 7.96101V17ZM5.25 18.5V21.5H18.75V18.5H5.25ZM13.899 2.05401L19.974 7.02501C20.0602 7.09527 20.1296 7.1838 20.1773 7.2842C20.2251 7.38459 20.2499 7.49435 20.25 7.60551V22.25C20.25 22.4489 20.171 22.6397 20.0303 22.7803C19.8897 22.921 19.6989 23 19.5 23H4.5C4.30109 23 4.11032 22.921 3.96967 22.7803C3.82902 22.6397 3.75 22.4489 3.75 22.25V7.60551C3.74993 7.49447 3.77451 7.38479 3.82198 7.2844C3.86945 7.18401 3.93862 7.09542 4.0245 7.02501L10.0995 2.05401C10.6355 1.61546 11.3067 1.37585 11.9992 1.37585C12.6918 1.37585 13.363 1.61546 13.899 2.05401Z" fill="white"/>
<path d="M12 11C12.3978 11 12.7794 10.842 13.0607 10.5607C13.342 10.2794 13.5 9.89782 13.5 9.5C13.5 9.10218 13.342 8.72064 13.0607 8.43934C12.7794 8.15804 12.3978 8 12 8C11.6022 8 11.2206 8.15804 10.9393 8.43934C10.658 8.72064 10.5 9.10218 10.5 9.5C10.5 9.89782 10.658 10.2794 10.9393 10.5607C11.2206 10.842 11.6022 11 12 11ZM12 12.5C11.2044 12.5 10.4413 12.1839 9.87868 11.6213C9.31607 11.0587 9 10.2956 9 9.5C9 8.70435 9.31607 7.94129 9.87868 7.37868C10.4413 6.81607 11.2044 6.5 12 6.5C12.7956 6.5 13.5587 6.81607 14.1213 7.37868C14.6839 7.94129 15 8.70435 15 9.5C15 10.2956 14.6839 11.0587 14.1213 11.6213C13.5587 12.1839 12.7956 12.5 12 12.5Z" fill="white"/>
</svg>
