<svg width="20" height="20" viewBox="0 0 20 20" fill="none" xmlns="http://www.w3.org/2000/svg">
<path d="M17.2469 3C18.7111 3 19.9083 4.14129 19.995 5.58154L20 5.749V14.251C20 15.713 18.857 16.9084 17.4147 16.995L17.2469 17H2.75305C1.2889 17 0.0916975 15.8587 0.00502452 14.4185L0 14.251V5.749C0 4.287 1.14297 3.09156 2.58534 3.00502L2.75305 3H17.2469ZM18.4975 8.97183H1.50066L1.50166 14.251C1.50166 14.898 1.99408 15.4301 2.6251 15.4941L2.75305 15.5005H17.2469C17.8949 15.5005 18.4278 15.0088 18.4919 14.3788L18.4983 14.251L18.4975 8.97183ZM16.2599 12.4759C16.6745 12.4759 17.0107 12.8115 17.0107 13.2256C17.0107 13.6051 16.7282 13.9188 16.3618 13.9685L16.2599 13.9753H13.7571C13.3424 13.9753 13.0063 13.6396 13.0063 13.2256C13.0063 12.846 13.2887 12.5323 13.6552 12.4827L13.7571 12.4759H16.2599ZM17.2469 4.49946H2.75305C2.10512 4.49946 1.57221 4.99115 1.50813 5.62124L1.50166 5.749L1.50066 7.47237H18.4975L18.4983 5.749C18.4983 5.10203 18.0059 4.5699 17.3749 4.50591L17.2469 4.49946Z" fill="black"/>
</svg>
