<svg width="10" height="11" viewBox="0 0 10 11" fill="none" xmlns="http://www.w3.org/2000/svg">
<path d="M4.04508 3.68368C4.34444 2.76237 5.65556 2.76237 5.95492 3.68368C6.08879 4.0957 6.4766 4.37746 6.90983 4.37746C7.87855 4.37746 8.28371 5.62442 7.5 6.19382C7.14951 6.44846 7.00138 6.90437 7.13526 7.31639C7.43461 8.2377 6.37388 9.00836 5.59017 8.43896C5.23968 8.18432 4.76032 8.18432 4.40983 8.43896C3.62612 9.00836 2.56539 8.2377 2.86474 7.31639C2.99862 6.90437 2.85049 6.44846 2.5 6.19382C1.71629 5.62442 2.12145 4.37746 3.09017 4.37746C3.5234 4.37746 3.91121 4.0957 4.04508 3.68368Z" fill="#FFCB67"/>
</svg>
