<svg width="20" height="20" viewBox="0 0 20 20" fill="none" xmlns="http://www.w3.org/2000/svg">
<path d="M15.0006 5L14.3332 15.0107C14.2748 15.8875 14.2456 16.3259 14.0562 16.6583C13.8895 16.951 13.638 17.1863 13.3349 17.3332C12.9907 17.5 12.5512 17.5 11.6725 17.5H8.32879C7.45004 17.5 7.01067 17.5 6.66639 17.3332C6.36329 17.1863 6.11181 16.951 5.94508 16.6583C5.75571 16.3259 5.72648 15.8875 5.66803 15.0107L5.00065 5M3.33398 5H16.6673M13.334 5L13.1085 4.32339C12.8899 3.66771 12.7806 3.33987 12.5779 3.09748C12.3989 2.88344 12.1691 2.71777 11.9094 2.61565C11.6153 2.5 11.2698 2.5 10.5787 2.5H9.42265C8.73148 2.5 8.38598 2.5 8.09191 2.61565C7.83225 2.71777 7.60238 2.88344 7.42339 3.09748C7.22069 3.33987 7.11142 3.66771 6.89285 4.32339L6.66732 5" stroke="black" stroke-width="1.5" stroke-linecap="round" stroke-linejoin="round"/>
</svg>
